<svg width="541" height="217" viewBox="0 0 541 217" fill="none" xmlns="http://www.w3.org/2000/svg">
<path d="M110.09 20.85C101.62 18.9 96.09 32.9 96.09 32.9V57.65C127.67 59.93 127.35 51.46 127.35 51.46C157.63 51.13 176.51 26.78 176.51 26.78C148.51 34.66 118.55 22.8 110.09 20.85Z" fill="#003554"/>
<path d="M80.42 57.64V32.89C80.42 32.89 74.88 18.89 66.42 20.84C57.96 22.79 28 34.65 0 26.77C0 26.77 18.88 51.12 49.16 51.45C49.16 51.45 48.84 59.91 80.42 57.64Z" fill="#003554"/>
<path d="M83.97 21.7V86.26C85.29 86.43 86.7 86.6 88.26 86.78C89.78 86.61 91.16 86.44 92.46 86.28V21.7C96.58 20.02 99.49 15.99 99.49 11.27C99.49 5.05 94.45 0 88.22 0C81.99 0 76.95 5.04 76.95 11.27C76.95 15.99 79.86 20.03 83.98 21.7H83.97Z" fill="#003554"/>
<path d="M88.25 119.12C88.66 118.96 89.06 118.81 89.46 118.63C90.45 118.23 91.43 117.78 92.45 117.26V104.62C91.13 104.35 89.74 104.16 88.26 104.03C86.74 104.16 85.31 104.36 83.97 104.64V117.23C85.01 117.76 86.01 118.23 86.99 118.62C87.42 118.81 87.84 118.97 88.26 119.13L88.25 119.12Z" fill="#003554"/>
<path d="M92.28 165.2C92.35 165.16 92.4 165.12 92.45 165.07V162.84C91.93 162.58 91.06 162.23 89.9 161.94C89.37 161.8 88.81 161.67 88.24 161.55C87.68 161.67 87.14 161.79 86.64 161.93C85.4 162.24 84.51 162.6 83.97 162.89V165.01C84.05 165.07 84.13 165.13 84.23 165.2C85.29 165.91 86.72 166.6 88.26 167.32C89.8 166.61 91.22 165.91 92.29 165.2H92.28Z" fill="#003554"/>
<path d="M88.25 205.69C87.01 206.11 85.73 206.49 84.37 206.83C84.23 206.86 84.11 206.89 83.98 206.92L84.59 212.15C85.33 213.94 85.88 216.39 88.22 216.39C90.56 216.39 90.93 214.84 91.79 212.15L92.46 206.9C92.36 206.87 92.26 206.85 92.16 206.83C90.76 206.48 89.49 206.1 88.26 205.69H88.25Z" fill="#003554"/>
<path d="M92.32 186.1C92.21 185.48 92.03 185.05 91.71 184.6C91.36 184.09 90.47 183.17 88.26 182.01C86.04 183.18 85.16 184.09 84.83 184.57C84.49 185.04 84.31 185.48 84.21 186.06C84.18 186.18 84.16 186.26 84.16 186.35C84.16 186.38 84.16 186.47 84.16 186.5L84.13 186.92L84.16 187.58C84.19 187.71 84.22 187.84 84.23 187.96C84.44 188.89 85.15 189.91 86.19 190.76C86.83 191.29 87.54 191.77 88.28 192.2C89.01 191.77 89.71 191.3 90.35 190.77C91.39 189.91 92.1 188.89 92.31 187.97C92.33 187.84 92.36 187.72 92.38 187.59L92.41 186.92L92.38 186.52C92.38 186.47 92.38 186.41 92.38 186.36C92.38 186.27 92.35 186.19 92.34 186.11L92.32 186.1Z" fill="#003554"/>
<path d="M88.26 146.95C88.32 146.94 88.37 146.92 88.43 146.91C89.1 146.76 89.75 146.62 90.39 146.47C91.11 146.3 91.81 146.13 92.46 145.94V137.51C91.17 136.79 89.72 136.2 88.29 135.67C86.68 136.3 85.23 137 83.98 137.73V145.91C85.24 146.27 86.63 146.58 88.09 146.9C88.15 146.91 88.21 146.93 88.27 146.94L88.26 146.95Z" fill="#003554"/>
<path d="M96.65 186.93C96.65 186.93 96.65 186.97 96.65 186.99L96.6 188.03C96.6 188.23 96.55 188.43 96.49 188.62C96.49 188.69 96.49 188.67 96.48 188.74C96.1 190.65 94.88 192.54 93.05 194.04C92.97 194.1 92.89 194.16 92.81 194.23C93.7 194.54 94.55 194.8 95.31 195.02C96.05 195.23 96.75 195.4 97.43 195.56C98.79 194.12 100.1 192.17 100.69 189.63C100.77 189.21 100.86 188.71 100.93 188.22L101.02 186.86L100.98 185.87C100.98 185.51 100.94 185.15 100.86 184.65C100.6 182.85 99.92 181.07 98.94 179.61C98.49 178.95 97.99 178.36 97.47 177.81C95.83 178.67 94.31 179.32 92.91 179.91C93.89 180.64 94.66 181.39 95.19 182.17C95.86 183.1 96.28 184.11 96.5 185.3C96.54 185.47 96.59 185.76 96.62 186.11C96.66 186.26 96.67 186.42 96.68 186.58C96.68 186.69 96.68 186.8 96.68 186.91V186.93H96.65Z" fill="#003554"/>
<path d="M131.26 77.09L131.12 75.73C130.86 73.9 130.38 72.26 129.64 70.79C128.83 69.18 127.63 67.68 126.25 66.59C123.36 64.3 120.42 63.7 118.18 63.43C116.05 63.2 113.71 63.33 112.29 63.49C111.94 63.53 111.62 63.58 111.3 63.62C107.53 62.43 101.7 61.87 97.68 67.53C91.29 76.51 100.12 79.71 102.55 79.4C104.64 79.14 110.84 78.12 114.21 73.76C115.15 73.65 116.15 73.6 117.09 73.67C117.85 73.72 118.94 73.92 119.66 74.34C120 74.52 120.27 74.76 120.53 75.11C120.57 75.17 120.62 75.24 120.66 75.31C120.89 75.7 121.05 76.18 121.15 76.62C121.27 76.87 121.34 77.17 121.36 77.52C121.36 77.54 121.36 77.65 121.36 77.67C121.36 77.77 121.36 77.88 121.36 78V78.57C121.38 78.83 121.36 79.08 121.36 79.18C121.32 79.42 121.25 79.65 121.15 79.85C121 80.24 120.79 80.59 120.58 80.92C119.99 81.87 118.73 82.96 117.1 83.96C116.6 84.26 116.08 84.56 115.52 84.84C111.9 86.65 106.86 88.16 100.53 89.33C99.74 89.48 98.93 89.62 98.1 89.76C97.32 89.89 96.53 90.01 95.71 90.13C94.69 90.28 93.61 90.42 92.46 90.57C91.17 90.73 89.78 90.9 88.27 91.07C88.09 91.09 87.92 91.11 87.74 91.13C86.45 91.26 85.2 91.45 83.98 91.66C81.04 92.18 78.29 92.92 75.8 93.9C73.47 94.83 71.59 95.83 69.87 97.05C69.74 97.15 69.61 97.24 69.48 97.34C68.73 97.9 68.05 98.47 67.44 99.06C66.85 99.64 66.32 100.24 65.85 100.88C65.43 101.44 65.04 102.03 64.7 102.65C64.14 103.68 63.73 104.8 63.47 105.94C63.42 106.19 63.36 106.44 63.32 106.69C63.28 107.03 63.23 107.41 63.2 107.79L63.17 108.63V108.66L63.24 109.78C63.24 109.86 63.26 109.96 63.26 110.07C63.26 110.17 63.27 110.26 63.31 110.5C63.44 111.29 63.59 112.2 63.76 112.69C63.83 112.89 63.89 113.09 63.96 113.3C64.1 113.76 64.24 114.19 64.4 114.51C64.42 114.55 64.43 114.58 64.45 114.62C64.93 115.73 65.55 116.84 66.3 117.91C68.77 121.37 71.86 123.69 74.81 125.47C77.45 123.67 80.11 122.36 82.58 121.31C81.86 120.95 81.13 120.57 80.36 120.14C76.82 118.11 74.07 115.75 72.62 113.48C70.95 110.92 71.12 108.82 71.56 107.51C71.75 106.96 72.02 106.44 72.37 105.94H72.12C72.93 104.84 74.37 103.8 75.92 102.96C76.03 102.9 76.13 102.85 76.24 102.8C76.28 102.78 76.31 102.76 76.35 102.74C76.63 102.6 76.89 102.47 77.17 102.35C77.27 102.31 77.36 102.26 77.46 102.22C77.88 102.04 78.3 101.87 78.7 101.73C78.73 101.73 78.75 101.71 78.78 101.7H78.79C79.33 101.5 79.9 101.33 80.47 101.17C81.58 100.85 82.74 100.58 83.94 100.36C84.66 100.23 85.39 100.11 86.15 100.01C86.83 99.92 87.52 99.85 88.23 99.8C88.34 99.8 88.44 99.77 88.56 99.77C89.93 99.66 91.21 99.54 92.42 99.43C95.02 99.18 97.3 98.93 99.38 98.64C101.88 98.28 104.43 97.88 107.01 97.35C107.89 97.17 108.77 96.97 109.65 96.76C110.46 96.56 111.27 96.36 112.08 96.13C114.62 95.42 117.15 94.53 119.61 93.41C122.58 91.97 125.73 90.17 128.29 86.83C128.46 86.61 128.6 86.38 128.75 86.15C129.78 84.64 130.53 82.99 130.87 81.42C130.88 81.36 130.9 81.3 130.91 81.24C130.99 80.98 131.07 80.31 131.12 79.87L131.23 77.52L131.21 77.16C131.21 77.16 131.21 77.12 131.21 77.11L131.26 77.09Z" fill="#003554"/>
<path d="M106.78 137.58C105.94 135.32 104.53 133.32 102.47 131.4C102.11 131.08 101.75 130.78 101.38 130.48C99.28 131.57 97.24 132.49 95.3 133.21C94.94 133.35 94.55 133.49 94.18 133.62C96.48 134.84 98.59 136.48 99.92 138.94C100.11 139.29 100.26 139.66 100.39 140.03H100.38C100.38 140.03 100.41 140.11 100.42 140.15C100.45 140.23 100.48 140.31 100.51 140.39C100.63 140.8 100.71 141.22 100.74 141.65C100.81 142.5 100.72 143.37 100.48 144.23C100.46 144.28 100.44 144.34 100.43 144.39C100.37 144.6 100.27 144.81 100.19 145.01C100.12 145.19 100.07 145.38 99.98 145.56C99.94 145.66 99.89 145.77 99.83 145.86L99.71 146.06L99.67 146.13C99.59 146.25 99.5 146.36 99.41 146.47C98.5 147.67 97.47 148.51 96.19 149.12C96.13 149.15 96.06 149.17 95.99 149.2C95.69 149.33 95.39 149.47 95.06 149.58C94.35 149.83 93.6 150.04 92.83 150.25C92.71 150.28 92.6 150.31 92.48 150.34C92.47 150.34 92.46 150.34 92.44 150.35C91.47 150.59 90.45 150.82 89.4 151.05C89.39 151.05 89.37 151.05 89.36 151.05C89 151.13 88.64 151.21 88.28 151.29C86.89 151.6 85.48 151.93 84.01 152.35H83.99C82.21 152.89 80.29 153.57 78.36 154.86C78.24 154.94 78.13 155.01 78.01 155.09C77.49 155.46 76.98 155.91 76.52 156.41C76.12 156.83 75.75 157.28 75.43 157.75C75.35 157.87 75.27 158.01 75.19 158.14C74.66 159.01 74.24 160.03 73.96 161.17C73.89 161.55 73.76 162.25 73.71 162.86L73.66 164.13L73.69 164.62L73.73 165.25C73.78 165.62 73.85 166 73.93 166.36C74.09 167.08 74.28 167.54 74.58 168.22C75.58 170.29 77.15 171.63 78.54 172.58C80.09 171.41 81.74 170.46 83.39 169.61C82.86 169.32 82.35 169.02 81.88 168.71C81.09 168.18 79.7 167.1 79.23 165.81C79.23 165.8 79.19 165.69 79.18 165.68C79.16 165.61 79.13 165.52 79.1 165.4C79.03 165.17 79.01 164.91 78.98 164.62C78.98 164.53 78.97 164.46 78.96 164.37C78.96 164.33 78.96 164.28 78.96 164.24C78.96 164.17 78.96 164.1 78.96 164.03C78.96 164.01 78.96 163.99 78.96 163.98C78.96 163.92 78.96 163.87 78.96 163.82C78.96 163.65 78.99 163.47 79.03 163.29C79.06 163.07 79.09 162.89 79.13 162.73L79.16 162.59C79.18 162.47 79.21 162.36 79.25 162.24C79.59 161.25 80.01 160.62 80.75 160C80.91 159.87 81.06 159.74 81.25 159.6C81.88 159.18 82.68 158.8 83.58 158.47C83.71 158.42 83.86 158.37 84 158.32C84.51 158.14 85.04 157.97 85.6 157.83C86.44 157.6 87.34 157.41 88.28 157.22C88.87 157.1 89.45 156.99 90.06 156.87C90.85 156.72 91.66 156.57 92.48 156.4C93.92 156.11 95.39 155.77 96.96 155.29C97.36 155.17 97.77 155.02 98.19 154.87C98.91 154.61 99.66 154.29 100.42 153.89C101.05 153.56 101.68 153.18 102.3 152.72C102.62 152.49 102.93 152.24 103.24 151.97L103.97 151.26C104.23 150.98 104.49 150.64 104.73 150.32C104.96 150.03 105.04 149.89 105.12 149.77L105.7 148.81C106.31 147.66 106.76 146.55 107.09 145.39C107.58 143.69 107.68 141.79 107.42 140.03C107.29 139.17 107.09 138.33 106.79 137.58H106.78Z" fill="#003554"/>
<path d="M77.82 200.16C76.6 200.39 75.52 200.57 74.59 200.7C73.56 200.84 72.63 200.95 71.88 201.02C71.85 201.02 71.81 201.02 71.78 201.02C71.32 201.05 70.9 201.25 70.59 201.6C70.28 201.94 70.13 202.39 70.16 202.84C70.21 203.75 70.97 204.46 71.88 204.46H71.98C71.98 204.46 72.3 204.43 72.83 204.4L75.05 204.19C76.8 203.99 79.16 203.66 82.04 203.01C80.82 202.34 79.53 201.53 78.24 200.5C78.1 200.39 77.96 200.27 77.82 200.15V200.16Z" fill="#003554"/>
<path d="M104.72 201.03C104.72 201.03 104.7 201.03 104.69 201.03H104.63C104.19 200.99 103.23 200.9 101.93 200.71C101 200.58 99.92 200.41 98.69 200.17C97.86 200.01 96.95 199.81 95.99 199.58C95.4 199.43 94.78 199.28 94.14 199.1C93.86 199.02 93.56 198.93 93.26 198.84C93 198.76 92.73 198.67 92.46 198.59C91.11 198.16 89.69 197.64 88.26 196.98C87.44 196.61 86.63 196.19 85.84 195.71C85.2 195.32 84.58 194.89 83.97 194.42C83.89 194.36 83.8 194.3 83.72 194.23C83.64 194.16 83.55 194.11 83.46 194.04C81.64 192.54 80.42 190.66 80.03 188.75C80.03 188.7 80.01 188.65 80.01 188.61C79.95 188.43 79.92 188.24 79.91 188.05L79.86 187.01C79.83 186.74 79.86 186.46 79.9 186.2C79.92 185.82 79.98 185.51 80.02 185.28C80.23 184.13 80.66 183.1 81.34 182.16C81.86 181.4 82.63 180.66 83.61 179.93C83.72 179.85 83.85 179.77 83.97 179.69C84.51 179.31 85.1 178.92 85.78 178.55C86.46 178.17 87.19 177.81 87.99 177.44C88.08 177.4 88.17 177.36 88.25 177.32C89.06 176.94 89.92 176.58 90.83 176.2C91.37 175.98 91.9 175.75 92.45 175.51C92.9 175.31 93.35 175.12 93.82 174.9C94.52 174.57 95.25 174.21 95.99 173.81C96.46 173.55 96.94 173.29 97.43 172.99C97.61 172.88 97.79 172.76 97.98 172.63C99.35 171.69 100.94 170.33 101.96 168.2C102.22 167.61 102.42 167.12 102.58 166.41C102.66 166.04 102.73 165.67 102.78 165.3L102.82 164.67L102.86 164.19L102.81 162.85C102.77 162.32 102.64 161.65 102.54 161.14C102.28 160.08 101.86 159.07 101.33 158.19C100.2 158.71 99.13 159.09 98.19 159.39C97.36 159.64 96.57 159.85 95.79 160.04C96.55 160.69 96.96 161.31 97.29 162.29C97.33 162.4 97.35 162.51 97.37 162.63L97.4 162.78C97.44 162.96 97.47 163.14 97.5 163.34C97.56 163.59 97.57 163.82 97.57 164.01V164.03C97.57 164.08 97.57 164.13 97.57 164.18C97.57 164.24 97.57 164.3 97.55 164.37L97.53 164.68L97.51 165.01C97.49 165.32 97.41 165.61 97.28 165.87C96.82 167.17 95.41 168.25 94.62 168.78C94.15 169.09 93.64 169.39 93.11 169.68C92.89 169.8 92.66 169.91 92.44 170.03C91.9 170.32 91.34 170.59 90.75 170.87C90.16 171.15 89.56 171.43 88.95 171.71C88.72 171.82 88.47 171.94 88.24 172.04C87.46 172.4 86.67 172.76 85.88 173.15C85.25 173.46 84.6 173.81 83.95 174.17C83.52 174.41 83.09 174.65 82.67 174.92C82 175.34 81.34 175.81 80.69 176.32C80.11 176.78 79.56 177.29 79.03 177.85C78.51 178.4 78.01 178.99 77.56 179.66C76.57 181.11 75.89 182.89 75.65 184.66C75.59 185.01 75.53 185.47 75.52 185.86L75.48 186.89L75.57 188.26C75.64 188.76 75.73 189.25 75.83 189.73C76.42 192.22 77.73 194.16 79.08 195.6C79.68 196.24 80.29 196.79 80.85 197.23C80.89 197.26 80.93 197.29 80.97 197.32C81.73 197.92 82.5 198.43 83.24 198.88C83.48 199.02 83.72 199.15 83.95 199.28C85.15 199.95 86.3 200.47 87.35 200.9C87.64 201.02 87.94 201.13 88.23 201.24C89.22 201.61 90.24 201.95 91.31 202.26C91.67 202.37 92.05 202.47 92.43 202.57C92.67 202.64 92.9 202.71 93.16 202.77C93.6 202.88 94.03 202.98 94.44 203.07C97.25 203.71 99.56 204.02 101.47 204.25C102.43 204.34 103.2 204.42 103.71 204.46L104.6 204.51C105.51 204.51 106.26 203.8 106.32 202.89C106.37 201.94 105.65 201.13 104.7 201.07L104.72 201.03Z" fill="#003554"/>
<path d="M113.31 107.68C113.29 107.37 113.24 106.98 113.19 106.6C113.15 106.37 113.1 106.13 113.05 105.9C112.8 104.78 112.38 103.65 111.81 102.61C111.47 101.99 111.09 101.41 110.67 100.84C107.18 101.68 103.71 102.26 100.34 102.74C102.16 103.63 103.49 104.69 104.35 105.9C104.66 106.33 104.92 106.78 105.1 107.26C105.55 108.44 105.81 110.33 104.5 112.65C102.97 115.35 100.16 117.86 96.14 120.11C95.38 120.53 94.64 120.92 93.92 121.27C93.42 121.52 92.94 121.74 92.45 121.96C92.05 122.14 91.65 122.32 91.25 122.48C91.2 122.5 91.15 122.52 91.1 122.54C90.17 122.95 89.23 123.28 88.25 123.64C88.2 123.66 88.16 123.67 88.11 123.69C87.33 123.97 86.49 124.27 85.51 124.65C85 124.86 84.48 125.07 83.97 125.29C82.37 125.98 80.74 126.76 79.11 127.72C78.41 128.13 77.7 128.57 77.01 129.06C76.38 129.5 75.75 129.98 75.13 130.48C74.76 130.78 74.39 131.09 74.03 131.42C71.98 133.32 70.58 135.33 69.74 137.54C69.44 138.31 69.23 139.16 69.1 140.03C68.84 141.8 68.94 143.7 69.43 145.38C69.76 146.55 70.22 147.67 70.82 148.8L71.08 149.27C71.08 149.27 71.11 149.32 71.12 149.32L71.41 149.78C71.49 149.9 71.57 150.03 71.79 150.31C72.04 150.63 72.31 150.97 72.57 151.26L73.37 152.04C73.65 152.29 73.94 152.51 74.23 152.73C74.65 152.35 75.09 151.98 75.54 151.65C77.18 150.49 78.8 149.7 80.33 149.12C77.92 147.99 76.23 145.99 75.76 143.62C75.52 142.41 75.62 141.19 76.02 140.04C76.48 138.7 77.34 137.44 78.57 136.36C79.74 135.34 81.11 134.46 82.51 133.7C83 133.43 83.49 133.18 83.97 132.95C84.38 132.75 84.79 132.56 85.19 132.38C86.2 131.94 87.16 131.56 88.02 131.25C88.09 131.22 88.18 131.2 88.25 131.17C88.79 130.98 89.42 130.77 90.13 130.54C90.87 130.3 91.66 130.03 92.45 129.75C92.9 129.59 93.34 129.44 93.76 129.27C94.95 128.82 96.16 128.31 97.39 127.73C98.13 127.38 98.88 127.02 99.64 126.62C99.67 126.61 99.69 126.59 99.72 126.58C100.36 126.23 101.02 125.85 101.69 125.44C104.62 123.67 107.73 121.35 110.21 117.87C110.95 116.81 111.57 115.71 112.05 114.59C112.07 114.55 112.08 114.52 112.1 114.49C112.26 114.17 112.4 113.73 112.55 113.27C112.61 113.07 112.68 112.86 112.75 112.67C112.92 112.17 113.07 111.25 113.19 110.52C113.23 110.24 113.24 110.15 113.25 110.06C113.25 109.95 113.26 109.85 113.28 109.7L113.34 108.65C113.34 108.65 113.34 108.57 113.34 108.53L113.31 107.7V107.68Z" fill="#003554"/>
<path d="M67.4 93.56C69.4 92.14 71.57 90.99 74.23 89.92C74.8 89.7 75.4 89.51 76 89.3C69.66 88.12 64.62 86.61 61 84.8C60.45 84.52 59.92 84.23 59.42 83.93C57.79 82.94 56.53 81.84 55.91 80.85C55.71 80.55 55.51 80.2 55.36 79.81C55.27 79.63 55.21 79.44 55.17 79.23C55.13 78.97 55.13 78.75 55.14 78.54C55.14 78.54 55.14 78.41 55.14 78.4V77.95C55.14 77.83 55.15 77.72 55.16 77.61C55.16 77.58 55.16 77.56 55.16 77.54V77.44C55.2 77.16 55.26 76.91 55.35 76.7C55.46 76.22 55.63 75.7 55.87 75.29C55.91 75.23 55.95 75.16 55.99 75.1C56.24 74.76 56.51 74.52 56.85 74.34C57.57 73.92 58.67 73.72 59.46 73.66C59.74 73.64 60.06 73.63 60.39 73.63C61.04 73.63 61.68 73.68 62.31 73.75C65.68 78.11 71.89 79.13 73.97 79.39C76.41 79.7 85.24 76.5 78.85 67.52C74.82 61.87 69 62.42 65.22 63.61C64.9 63.56 64.57 63.52 64.22 63.48C62.82 63.33 60.52 63.19 58.31 63.43C56.1 63.7 53.16 64.3 50.27 66.59C48.89 67.68 47.69 69.18 46.88 70.79C46.14 72.26 45.66 73.9 45.4 75.79L45.24 77.57L45.35 79.87C45.4 80.3 45.48 80.94 45.56 81.2C45.58 81.26 45.6 81.32 45.61 81.39C45.79 82.23 46.09 83.09 46.49 83.94C46.94 84.92 47.51 85.9 48.2 86.8C50.75 90.12 53.9 91.93 56.92 93.38C59.36 94.49 61.87 95.37 64.41 96.08C65.3 95.19 66.3 94.35 67.42 93.56H67.4Z" fill="#003554"/>
<path d="M180.05 100.195V59.4677H188.661V76.2717H206.141V59.4677H214.732V100.195H206.141V83.3711H188.661V100.195H180.05ZM233.242 59.4677V100.195H224.631V59.4677H233.242ZM243.126 100.195V59.4677H259.195C262.284 59.4677 264.915 60.0577 267.089 61.2376C269.264 62.4043 270.921 64.0283 272.061 66.1098C273.214 68.178 273.791 70.5643 273.791 73.2689C273.791 75.9734 273.208 78.3598 272.041 80.428C270.874 82.4961 269.184 84.1069 266.97 85.2603C264.769 86.4138 262.105 86.9905 258.976 86.9905H248.734V80.0899H257.584C259.241 80.0899 260.606 79.8049 261.68 79.2348C262.767 78.6514 263.576 77.8494 264.106 76.8285C264.65 75.7944 264.922 74.6079 264.922 73.2689C264.922 71.9166 264.65 70.7367 264.106 69.7291C263.576 68.7083 262.767 67.9194 261.68 67.3626C260.593 66.7925 259.214 66.5075 257.544 66.5075H251.737V100.195H243.126ZM284.501 100.195H275.274L289.333 59.4677H300.43L314.47 100.195H305.242L295.041 68.7746H294.723L284.501 100.195ZM283.924 84.1865H305.72V90.9081H283.924V84.1865ZM329.192 100.195H319.964L334.024 59.4677H345.121L359.16 100.195H349.933L339.731 68.7746H339.413L329.192 100.195ZM328.615 84.1865H350.41V90.9081H328.615V84.1865ZM215.984 129.726H207.274C207.115 128.599 206.79 127.598 206.3 126.723C205.809 125.835 205.18 125.079 204.411 124.456C203.642 123.833 202.753 123.356 201.746 123.025C200.751 122.693 199.671 122.527 198.504 122.527C196.396 122.527 194.56 123.051 192.996 124.098C191.431 125.133 190.218 126.644 189.357 128.633C188.495 130.608 188.064 133.008 188.064 135.831C188.064 138.735 188.495 141.174 189.357 143.15C190.232 145.125 191.451 146.616 193.016 147.624C194.58 148.632 196.39 149.135 198.445 149.135C199.598 149.135 200.665 148.983 201.646 148.678C202.641 148.373 203.522 147.929 204.291 147.346C205.06 146.749 205.697 146.026 206.2 145.178C206.717 144.329 207.075 143.362 207.274 142.275L215.984 142.314C215.759 144.184 215.196 145.987 214.294 147.723C213.406 149.447 212.206 150.991 210.695 152.357C209.197 153.709 207.407 154.783 205.325 155.579C203.257 156.361 200.917 156.752 198.305 156.752C194.673 156.752 191.425 155.93 188.561 154.286C185.711 152.642 183.457 150.262 181.8 147.147C180.156 144.031 179.334 140.259 179.334 135.831C179.334 131.39 180.169 127.612 181.84 124.496C183.51 121.381 185.777 119.008 188.641 117.377C191.504 115.733 194.726 114.911 198.305 114.911C200.665 114.911 202.853 115.242 204.868 115.905C206.896 116.568 208.693 117.536 210.257 118.809C211.822 120.068 213.094 121.613 214.075 123.442C215.07 125.272 215.706 127.366 215.984 129.726ZM262.385 135.831C262.385 140.273 261.543 144.051 259.86 147.167C258.189 150.282 255.909 152.662 253.019 154.306C250.142 155.936 246.907 156.752 243.314 156.752C239.695 156.752 236.447 155.93 233.57 154.286C230.693 152.642 228.419 150.262 226.749 147.147C225.078 144.031 224.243 140.259 224.243 135.831C224.243 131.39 225.078 127.612 226.749 124.496C228.419 121.381 230.693 119.008 233.57 117.377C236.447 115.733 239.695 114.911 243.314 114.911C246.907 114.911 250.142 115.733 253.019 117.377C255.909 119.008 258.189 121.381 259.86 124.496C261.543 127.612 262.385 131.39 262.385 135.831ZM253.655 135.831C253.655 132.954 253.224 130.528 252.363 128.553C251.514 126.578 250.314 125.079 248.763 124.059C247.212 123.038 245.396 122.527 243.314 122.527C241.233 122.527 239.417 123.038 237.865 124.059C236.314 125.079 235.108 126.578 234.246 128.553C233.398 130.528 232.973 132.954 232.973 135.831C232.973 138.708 233.398 141.134 234.246 143.11C235.108 145.085 236.314 146.583 237.865 147.604C239.417 148.625 241.233 149.135 243.314 149.135C245.396 149.135 247.212 148.625 248.763 147.604C250.314 146.583 251.514 145.085 252.363 143.11C253.224 141.134 253.655 138.708 253.655 135.831ZM271.564 115.468H282.183L293.399 142.831H293.876L305.092 115.468H315.712V156.195H307.359V129.686H307.021L296.481 155.996H290.794L280.254 129.587H279.916V156.195H271.564V115.468ZM325.606 156.195V115.468H341.674C344.763 115.468 347.395 116.058 349.569 117.238C351.743 118.404 353.401 120.028 354.541 122.11C355.694 124.178 356.271 126.564 356.271 129.269C356.271 131.973 355.687 134.36 354.521 136.428C353.354 138.496 351.664 140.107 349.45 141.26C347.249 142.414 344.584 142.99 341.455 142.99H331.214V136.09H340.063C341.721 136.09 343.086 135.805 344.16 135.235C345.247 134.651 346.056 133.849 346.586 132.829C347.13 131.794 347.401 130.608 347.401 129.269C347.401 127.917 347.13 126.737 346.586 125.729C346.056 124.708 345.247 123.919 344.16 123.363C343.073 122.793 341.694 122.508 340.024 122.508H334.217V156.195H325.606ZM364.664 156.195V115.468H373.275V149.096H390.735V156.195H364.664ZM407.848 115.468V156.195H399.237V115.468H407.848ZM424.752 156.195H415.525L429.585 115.468H440.681L454.721 156.195H445.494L435.292 124.775H434.974L424.752 156.195ZM424.176 140.186H445.971V146.908H424.176V140.186ZM496.489 115.468V156.195H489.051L471.332 130.561H471.034V156.195H462.423V115.468H469.98L487.56 141.081H487.918V115.468H496.489ZM504.852 122.567V115.468H538.301V122.567H525.832V156.195H517.321V122.567H504.852Z" fill="#003554"/>
</svg>
